<?xml version="1.0" encoding="UTF-8" standalone="no"?>
<!DOCTYPE svg PUBLIC "-//W3C//DTD SVG 1.1//EN" "http://www.w3.org/Graphics/SVG/1.1/DTD/svg11.dtd">
<svg width="100%" height="100%" viewBox="0 0 2400 2400" version="1.1" xmlns="http://www.w3.org/2000/svg" xmlns:xlink="http://www.w3.org/1999/xlink" xml:space="preserve" xmlns:serif="http://www.serif.com/" style="fill-rule:evenodd;clip-rule:evenodd;stroke-linejoin:round;stroke-miterlimit:2;">
    <g transform="matrix(2.88855,0,0,2.88855,-2253.61,-1809.53)">
        <g>
            <path d="M1200,627.938C1423.34,627.938 1604.4,808.974 1604.4,1032.29C1604.4,1168.27 1537.27,1288.57 1434.35,1361.87L1504.62,1220.62C1510.41,1220.77 1516.07,1217.58 1518.84,1212.01C1522.65,1204.36 1519.59,1195.11 1512.02,1191.34C1504.45,1187.57 1495.22,1190.72 1491.42,1198.36C1488.76,1203.71 1489.45,1209.85 1492.71,1214.35L1441.73,1316.83C1440.41,1303.89 1435.41,1293.45 1426.9,1287.88C1451.46,1168.9 1397.11,1022.32 1259.69,953.964C1259.11,953.682 1258.55,953.384 1257.96,953.104L1230.63,939.507C1230.06,939.211 1229.48,938.938 1228.9,938.646C1091.49,870.287 941.816,915.367 861.714,1006.72C852.147,1003.29 840.807,1005.6 829.695,1012.35L880.533,910.158C886.331,910.304 891.987,907.122 894.761,901.545C898.566,893.899 895.511,884.645 887.938,880.878C880.365,877.11 871.141,880.256 867.338,887.903C864.676,893.255 865.372,899.393 868.627,903.886L796.003,1049.88C795.753,1044.04 795.6,1038.19 795.6,1032.29C795.6,808.974 976.655,627.938 1200,627.938Z" style="fill:rgb(0,129,167);"/>
            <path d="M1058.6,1319.59C1058.6,1319.59 1031.5,1304.48 999.069,1303.37C747.238,1294.74 850.471,899.112 1181.02,1073.51C1519.51,1231.94 1266.25,1552.93 1107.45,1357.29C1087,1332.09 1058.6,1319.59 1058.6,1319.59Z" style="fill:rgb(13,97,121);"/>
            <path d="M1008.87,1106.71C1024.46,1114.47 1025.61,1143.87 1011.42,1172.38C997.24,1200.89 973.103,1217.72 957.511,1209.96C941.92,1202.2 940.778,1172.8 954.961,1144.29C969.144,1115.78 993.281,1098.96 1008.87,1106.71Z" style="fill:rgb(0,175,185);"/>
            <path d="M1258.38,1230.84C1273.97,1238.59 1275.11,1267.99 1260.93,1296.5C1246.75,1325.01 1222.61,1341.84 1207.02,1334.08C1191.43,1326.33 1190.29,1296.92 1204.47,1268.41C1218.65,1239.9 1242.79,1223.08 1258.38,1230.84Z" style="fill:rgb(0,175,185);"/>
        </g>
    </g>
</svg>
